<?xml version="1.0" encoding="UTF-8" standalone="no"?>
<svg width="928px" height="266px" viewBox="0 0 928 266" version="1.1" xmlns="http://www.w3.org/2000/svg" xmlns:xlink="http://www.w3.org/1999/xlink" xmlns:sketch="http://www.bohemiancoding.com/sketch/ns">
    <!-- Generator: Sketch 3.2.2 (9983) - http://www.bohemiancoding.com/sketch -->
    <title>Logo - Tagline Normal</title>
    <desc>Created with Sketch.</desc>
    <defs></defs>
    <g id="Page-1" stroke="none" stroke-width="1" fill="none" fill-rule="evenodd" sketch:type="MSPage">
        <g id="Logo---Tagline-Normal" sketch:type="MSLayerGroup" transform="translate(-330.000000, -567.000000)" fill="#2C97E8">
            <g id="Tagline" transform="translate(503.000000, 750.000000)" sketch:type="MSShapeGroup">
                <path d="M69.655,28.63 C69.475,43.48 68.935,52.389 67.855,60.669 C66.325,71.739 65.155,73.809 60.385,73.809 C55.706,73.809 50.306,73.089 43.376,71.559 C44.186,73.988 44.546,75.698 44.816,78.308 C51.656,79.298 56.516,79.748 60.745,79.748 C65.245,79.748 67.585,78.938 69.295,76.958 C71.365,74.529 72.265,71.559 73.255,64.269 C74.515,55.719 74.515,55.179 75.055,43.12 C75.415,36.37 75.595,32.41 75.595,31.24 C75.685,27.46 75.685,27.46 75.685,26.651 C75.775,25.391 75.775,25.301 76.045,22.691 C73.525,23.051 70.825,23.141 65.425,23.141 L43.376,23.141 C43.916,19.901 44.636,13.601 45.086,7.841 C45.446,3.701 45.626,2.621 46.076,0.552 L38.966,0.462 C39.056,1.721 39.056,1.721 39.056,3.251 C39.056,8.381 38.336,16.661 37.346,23.141 L16.377,23.141 C10.708,23.141 7.738,22.961 5.128,22.601 L5.128,29.17 C7.468,28.81 11.067,28.63 16.287,28.63 L36.446,28.63 C35.636,32.59 35.277,34.48 34.737,36.64 C32.667,44.56 29.427,51.579 24.927,57.609 C18.717,65.799 10.708,71.829 0.898,75.608 C2.698,76.868 3.688,78.128 5.308,81.008 C10.168,78.668 12.687,77.138 16.287,74.259 C22.767,69.129 28.797,62.649 32.487,56.799 C37.436,48.79 40.406,40.42 42.476,28.63 L69.655,28.63 L69.655,28.63 Z M11.787,4.961 C17.457,10.181 20.517,13.781 25.017,20.801 L30.147,17.651 C25.737,11.441 22.587,7.751 16.557,1.902 L11.787,4.961 L11.787,4.961 Z M42.206,45.46 C49.766,51.849 52.736,54.819 57.506,61.029 L62.095,56.979 C56.156,50.5 52.286,46.81 46.076,42.22 L42.206,45.46 L42.206,45.46 Z" id="Fill-1"></path>
                <path d="M182.798,14.321 L191.617,14.321 C195.667,14.321 198.277,14.501 200.887,14.861 L200.887,8.291 C198.367,8.651 195.397,8.831 191.617,8.831 L140.679,8.831 C136.899,8.831 133.93,8.651 131.5,8.291 L131.5,14.861 C134.02,14.501 136.809,14.321 140.769,14.321 L149.499,14.321 L149.499,35.83 L149.499,37.36 L136.449,37.36 C132.58,37.36 129.61,37.18 127.18,36.82 L127.18,43.39 C129.88,43.03 132.669,42.85 136.359,42.85 L149.319,42.85 C148.689,59.859 143.199,67.959 127,75.608 C128.71,77.138 129.88,78.668 131.14,80.918 C141.219,75.518 146.439,70.929 150.129,64.179 C153.189,58.419 154.809,51.579 155.079,42.85 L176.858,42.85 L176.858,70.209 C176.858,74.708 176.678,77.678 176.228,80.828 L183.428,80.828 C182.978,77.588 182.798,74.888 182.798,70.119 L182.798,42.85 L195.667,42.85 C199.537,42.85 202.507,43.03 205.027,43.39 L205.027,36.82 C202.597,37.18 199.627,37.36 195.667,37.36 L182.798,37.36 L182.798,14.321 L182.798,14.321 Z M176.858,14.321 L176.858,37.36 L155.259,37.36 L155.259,36.1 L155.259,14.321 L176.858,14.321 L176.858,14.321 Z" id="Fill-4"></path>
                <path d="M317.497,35.02 C315.607,35.38 313.447,35.47 309.487,35.47 L282.938,35.47 C284.019,31.33 284.468,29.26 285.098,25.301 L321.547,25.391 C326.227,25.391 328.927,25.571 330.997,25.931 L330.997,19.451 C328.477,19.811 325.597,19.991 321.547,19.991 L285.998,19.991 C286.718,14.771 286.988,12.071 287.528,6.941 C287.978,3.341 287.978,3.341 288.428,1.721 L281.499,1.182 C281.679,2.441 281.679,3.071 281.679,3.881 C281.679,6.671 280.959,15.041 280.239,19.991 L264.849,19.991 C267.189,13.691 268.809,8.561 270.339,3.071 L264.129,2.171 C262.689,11.081 261.159,16.121 257.11,25.751 C258.1,25.751 261.069,25.571 265.929,25.301 L279.339,25.301 C276.189,42.04 271.149,53.649 262.689,63.639 C258.28,68.859 255.58,71.289 250,75.069 C252.07,76.778 253.24,78.128 254.41,80.198 C261.879,74.078 267.009,68.319 271.959,60.579 C275.559,55.089 278.169,49.87 280.059,44.74 C283.748,51.939 288.788,58.239 295.088,63.819 C292.028,66.159 289.868,67.509 287.078,68.949 C281.409,71.919 273.669,74.798 265.659,76.958 C267.549,79.028 268.269,80.108 269.259,82.448 C285.188,76.868 292.748,73.179 299.678,67.599 C307.958,73.809 317.407,78.578 328.837,82.448 C330.007,79.928 330.727,78.848 332.616,76.778 C320.737,73.629 312.367,69.849 303.908,63.819 C309.487,58.149 314.257,51.309 318.127,43.57 C319.657,40.42 320.107,39.61 320.737,38.71 L317.497,35.02 L317.497,35.02 Z M312.997,40.6 C309.218,48.97 305.078,54.999 299.318,60.309 C292.208,54.369 287.258,48.07 283.838,40.6 L312.997,40.6 L312.997,40.6 Z M323.077,13.871 C317.677,8.111 315.067,5.771 309.397,1.902 L305.348,5.321 C311.017,9.101 314.437,12.251 318.757,17.831 L323.077,13.871 L323.077,13.871 Z" id="Fill-5"></path>
                <path d="M416.808,23.681 C416.718,33.31 416.538,38.35 416.089,46.9 C415.549,56.349 413.839,68.139 412.669,71.109 C412.039,72.729 410.869,73.269 408.439,73.269 C405.739,73.269 402.139,72.729 397.909,71.829 C398.539,74.439 398.719,75.159 398.809,77.768 C403.039,78.398 406.909,78.758 409.699,78.758 C416.089,78.758 417.888,76.688 419.508,67.689 C421.128,58.329 422.208,44.2 422.478,29.35 C422.568,20.531 422.568,20.531 422.928,17.921 C420.228,18.191 417.798,18.281 413.569,18.281 L403.849,18.281 C404.209,3.611 404.209,3.611 404.659,1.272 L397.819,1.272 C398.359,3.791 398.449,5.501 398.449,10.991 C398.449,13.691 398.449,15.401 398.269,18.281 L393.049,18.281 C388.55,18.281 385.31,18.101 383.15,17.651 L383.15,24.31 C385.58,23.861 388.64,23.681 392.599,23.681 L397.999,23.681 C397.009,39.97 394.669,51.309 390.08,61.119 C387.29,67.059 385.04,70.299 380,76.058 C381.98,77.678 383.15,78.938 384.59,81.098 C389.179,75.339 391.07,72.459 393.679,67.329 C396.649,61.569 398.629,56.169 400.249,49.24 C402.139,41.41 402.949,35.02 403.669,23.681 L416.808,23.681 L416.808,23.681 Z M436.338,72.459 L454.967,72.459 L454.967,78.938 L461.177,78.938 C460.817,76.238 460.637,73.539 460.637,70.119 L460.637,21.701 C460.637,17.381 460.727,15.041 461.087,12.251 C458.207,12.611 456.767,12.701 453.257,12.701 L438.138,12.701 C434.718,12.701 432.828,12.611 430.218,12.251 C430.578,15.041 430.668,17.561 430.668,21.701 L430.668,69.399 C430.668,73.089 430.488,77.138 430.128,79.658 L436.338,79.658 L436.338,72.459 L436.338,72.459 Z M436.338,17.921 L454.967,17.921 L454.967,67.239 L436.338,67.239 L436.338,17.921 Z" id="Fill-6"></path>
                <path d="M567.48,52.209 C574.679,55.809 583.499,61.209 591.869,67.149 L594.749,62.559 C586.379,56.799 579.449,52.929 567.48,47.35 L567.48,45.19 L581.609,45.19 C585.839,45.19 588.089,45.28 590.249,45.55 C589.979,43.12 589.889,41.14 589.889,37.09 L589.889,31.24 C589.889,27.46 589.979,25.571 590.249,23.141 C587.639,23.501 585.209,23.591 581.789,23.591 L567.48,23.591 L567.48,16.031 L586.829,16.031 C590.519,16.031 592.139,16.121 594.479,16.571 L594.479,10.451 C592.139,10.901 590.429,10.991 586.289,10.991 L567.48,10.991 L567.48,7.841 C567.48,5.321 567.66,3.431 568.02,1.451 L561.63,1.451 C561.99,3.251 562.17,5.591 562.17,8.021 L562.17,10.991 L546.331,10.991 C542.011,10.991 540.121,10.901 537.781,10.451 L537.781,16.571 C539.941,16.121 541.921,16.031 545.88,16.031 L562.17,16.031 L562.17,23.591 L549.75,23.591 C546.151,23.591 543.721,23.501 541.021,23.141 C541.291,25.931 541.381,28.09 541.381,31.69 L541.381,37.27 C541.381,40.78 541.291,42.85 541.021,45.55 C543.361,45.28 545.61,45.19 549.66,45.19 L560.01,45.19 C557.4,47.98 556.14,49.15 554.07,50.86 C548.4,55.449 543.721,58.239 536.161,61.479 C537.871,63.189 538.501,63.999 539.671,66.159 C546.151,62.829 549.21,60.849 553.53,57.339 C557.22,54.459 559.11,52.569 562.53,48.43 C562.26,50.77 562.17,52.479 562.17,56.169 L562.17,63.999 C562.17,66.879 561.99,69.039 561.63,71.289 L568.02,71.289 C567.66,68.949 567.48,66.879 567.48,63.999 L567.48,52.209 L567.48,52.209 Z M546.781,28.36 L562.17,28.36 L562.17,40.419 L546.781,40.419 L546.781,28.36 Z M567.48,28.36 L584.489,28.36 L584.489,40.419 L567.48,40.419 L567.48,28.36 Z M533.011,44.92 C533.011,40.87 533.101,38.35 533.461,35.83 C531.211,36.19 529.591,36.28 526.711,36.28 L521.942,36.28 C518.432,36.28 516.992,36.19 515.012,35.83 L515.012,41.68 C517.082,41.32 518.522,41.23 521.582,41.23 L527.611,41.23 L527.611,64.359 C526.441,64.719 525.091,65.529 522.661,67.239 C520.682,68.679 517.262,71.829 513.302,75.968 L517.262,80.648 C521.852,74.168 526.981,69.309 529.231,69.309 C529.951,69.309 530.941,69.849 531.661,70.659 C533.641,72.819 534.721,73.988 534.991,74.259 C536.431,75.608 538.411,76.868 540.571,77.858 C544.621,79.568 552.54,80.468 563.79,80.468 C576.299,80.468 586.019,80.288 594.749,79.838 C595.289,76.868 595.919,74.978 596.908,73.269 C592.049,73.988 590.339,74.168 586.469,74.349 C580.529,74.619 571.89,74.888 566.31,74.888 C555.69,74.888 547.32,74.349 544.171,73.539 C540.391,72.459 538.141,70.929 534.721,67.059 C533.911,66.159 533.461,65.619 533.011,65.259 L533.011,44.92 L533.011,44.92 Z M516.182,6.851 C522.031,12.521 525.361,16.301 530.131,23.321 L534.721,19.271 C529.681,12.701 526.351,9.011 520.322,3.251 L516.182,6.851 L516.182,6.851 Z" id="Fill-7"></path>
            </g>
            <path d="M358.996,572.725 L330.079,572.725 L330.079,711.64 L418.153,711.64 L418.153,686.314 L358.996,686.314 L358.996,572.725 L358.996,572.725 Z M472.774,613.927 C444.235,613.927 424.579,635.284 424.579,664.012 C424.579,692.74 443.857,713.53 473.908,713.53 C491.863,713.53 504.526,707.86 514.543,696.331 L495.454,680.833 C491.296,686.503 483.925,690.661 474.475,690.661 C460.678,690.661 453.118,683.668 452.551,671.383 L517.378,671.383 L517.378,662.5 C517.378,636.229 502.825,613.927 472.774,613.927 L472.774,613.927 L472.774,613.927 Z M471.829,634.906 C483.169,634.906 489.595,643.033 489.973,653.806 L452.551,653.806 C453.118,642.844 460.489,634.906 471.829,634.906 L471.829,634.906 L471.829,634.906 Z M571.054,613.927 C545.539,613.927 528.34,635.095 528.34,663.823 C528.34,692.551 545.539,713.53 571.054,713.53 C584.851,713.53 594.112,707.86 599.026,701.056 L600.538,711.64 L625.486,711.64 L625.486,615.817 L600.538,615.817 L599.026,626.59 C594.112,619.597 584.851,613.927 571.054,613.927 L571.054,613.927 L571.054,613.927 Z M577.858,638.119 C587.497,638.119 593.356,643.411 597.514,650.215 L597.514,677.431 C593.356,684.235 587.497,689.338 577.858,689.338 C565.195,689.338 556.312,679.51 556.312,663.823 C556.312,647.947 565.195,638.119 577.858,638.119 L577.858,638.119 L577.858,638.119 Z M704.299,613.927 C691.069,613.927 681.808,619.408 677.083,626.401 L675.76,615.817 L650.812,615.817 L650.812,711.64 L678.595,711.64 L678.595,651.349 C682.186,645.49 688.045,640.009 696.739,640.009 C706.567,640.009 712.426,647.38 712.426,657.964 L712.426,711.64 L740.209,711.64 L740.209,656.452 C740.209,630.559 727.546,613.927 704.299,613.927 L704.299,613.927 L704.299,613.927 Z M827.716,570.268 C785.947,570.268 756.463,601.075 756.463,642.088 C756.463,683.29 785.947,714.097 827.716,714.097 C847.939,714.097 864.382,708.049 878.179,692.929 L860.224,671.95 C852.853,680.833 842.08,687.826 827.716,687.826 C802.201,687.826 785.569,668.548 785.569,642.088 C785.569,615.628 802.201,596.539 827.716,596.539 C841.891,596.539 852.475,603.343 859.846,612.037 L877.99,591.058 C864.571,577.261 849.64,570.268 827.716,570.268 L827.716,570.268 L827.716,570.268 Z M920.137,568 L892.354,568 L892.354,711.64 L920.137,711.64 L920.137,568 L920.137,568 Z M988.366,613.927 C959.26,613.927 938.092,635.284 938.092,664.012 C938.092,692.74 959.26,713.53 988.366,713.53 C1017.472,713.53 1039.018,692.74 1039.018,664.012 C1039.018,635.284 1017.472,613.927 988.366,613.927 L988.366,613.927 L988.366,613.927 Z M988.366,638.119 C1001.407,638.119 1010.857,649.27 1010.857,664.012 C1010.857,678.565 1001.407,689.338 988.366,689.338 C975.514,689.338 966.064,678.565 966.064,664.012 C966.064,649.27 975.514,638.119 988.366,638.119 L988.366,638.119 L988.366,638.119 Z M1143.346,615.817 L1115.563,615.817 L1115.563,676.108 C1111.783,681.967 1106.302,687.448 1097.23,687.448 C1087.78,687.448 1082.488,680.266 1082.488,669.871 L1082.488,615.817 L1054.705,615.817 L1054.705,671.383 C1054.705,697.087 1066.612,713.53 1089.292,713.53 C1103.089,713.53 1111.972,708.238 1117.075,701.245 L1118.398,711.64 L1143.346,711.64 L1143.346,615.817 L1143.346,615.817 Z M1258.258,568 L1230.286,568 L1230.286,624.511 C1225.75,619.219 1217.434,613.927 1203.826,613.927 C1178.311,613.927 1161.112,635.095 1161.112,663.823 C1161.112,692.551 1178.311,713.53 1203.826,713.53 C1217.623,713.53 1226.884,707.86 1231.798,701.056 L1233.31,711.64 L1258.258,711.64 L1258.258,568 L1258.258,568 Z M1210.63,638.119 C1220.269,638.119 1226.128,643.411 1230.286,650.215 L1230.286,677.431 C1226.128,684.235 1220.269,689.338 1210.63,689.338 C1197.967,689.338 1189.084,679.51 1189.084,663.823 C1189.084,647.947 1197.967,638.119 1210.63,638.119 L1210.63,638.119 L1210.63,638.119 Z" id="LeanCloud-3" sketch:type="MSShapeGroup"></path>
        </g>
    </g>
</svg>